<mxfile host="app.diagrams.net" modified="2021-06-04T04:02:31.697Z" agent="5.0 (Macintosh; Intel Mac OS X 10_15_7) AppleWebKit/537.36 (KHTML, like Gecko) Chrome/91.0.4472.77 Safari/537.36" etag="LEH-2hpMjt4fvlnDKUtr" version="14.7.5" type="github">
  <diagram id="CKxapPwfuemdFWNvV_NI" name="Page-1">
    <mxGraphModel dx="1426" dy="832" grid="1" gridSize="10" guides="1" tooltips="1" connect="1" arrows="1" fold="1" page="1" pageScale="1" pageWidth="827" pageHeight="1169" math="0" shadow="0">
      <root>
        <mxCell id="0" />
        <mxCell id="1" parent="0" />
        <mxCell id="OkWw-Ma1u8S5w2lh0Rv9-4" style="edgeStyle=orthogonalEdgeStyle;rounded=0;orthogonalLoop=1;jettySize=auto;html=1;curved=1;" edge="1" parent="1" source="OkWw-Ma1u8S5w2lh0Rv9-1" target="OkWw-Ma1u8S5w2lh0Rv9-3">
          <mxGeometry relative="1" as="geometry">
            <Array as="points">
              <mxPoint x="110" y="635" />
            </Array>
          </mxGeometry>
        </mxCell>
        <mxCell id="OkWw-Ma1u8S5w2lh0Rv9-1" value="" style="aspect=fixed;html=1;points=[];align=center;image;fontSize=12;image=img/lib/mscae/Person.svg;" vertex="1" parent="1">
          <mxGeometry x="100" y="700" width="50" height="67.57" as="geometry" />
        </mxCell>
        <mxCell id="OkWw-Ma1u8S5w2lh0Rv9-2" value="" style="aspect=fixed;html=1;points=[];align=center;image;fontSize=12;image=img/lib/mscae/SQL_Database_generic.svg;" vertex="1" parent="1">
          <mxGeometry x="330" y="790" width="38" height="50" as="geometry" />
        </mxCell>
        <mxCell id="OkWw-Ma1u8S5w2lh0Rv9-3" value="" style="aspect=fixed;html=1;points=[];align=center;image;fontSize=12;image=img/lib/mscae/Database_General.svg;" vertex="1" parent="1">
          <mxGeometry x="220" y="680" width="38" height="50" as="geometry" />
        </mxCell>
      </root>
    </mxGraphModel>
  </diagram>
</mxfile>
